<svg width="141" height="141" viewBox="0 0 141 141" fill="none" xmlns="http://www.w3.org/2000/svg">
<path d="M64.6838 17.9187C38.2463 20.7975 17.625 43.24 17.625 70.5C17.625 84.5233 23.1957 97.9723 33.1117 107.888C43.0277 117.804 56.4767 123.375 70.5 123.375C97.7013 123.375 120.144 102.812 123.081 76.375C123.61 71.7337 118.499 68.0325 114.034 70.7937C109.238 73.855 103.707 75.5709 98.0208 75.7619C92.3343 75.9529 86.7011 74.612 81.7105 71.8795C76.72 69.147 72.5556 65.1234 69.6532 60.2297C66.7508 55.336 65.217 49.7521 65.2125 44.0625C65.2125 37.835 67.0337 31.96 70.1475 27.0837C72.7912 23.1475 69.9125 17.5075 64.6838 17.9187V17.9187Z" fill="#292929"/>
</svg>
