<svg width="141" height="141" viewBox="0 0 141 141" fill="none" xmlns="http://www.w3.org/2000/svg">
<path d="M70.5 41.125C54.285 41.125 41.125 54.285 41.125 70.5C41.125 86.715 54.285 99.875 70.5 99.875C86.715 99.875 99.875 86.715 99.875 70.5C99.875 54.285 86.715 41.125 70.5 41.125ZM11.75 76.375H23.5C26.7313 76.375 29.375 73.7313 29.375 70.5C29.375 67.2687 26.7313 64.625 23.5 64.625H11.75C8.51875 64.625 5.875 67.2687 5.875 70.5C5.875 73.7313 8.51875 76.375 11.75 76.375ZM117.5 76.375H129.25C132.481 76.375 135.125 73.7313 135.125 70.5C135.125 67.2687 132.481 64.625 129.25 64.625H117.5C114.269 64.625 111.625 67.2687 111.625 70.5C111.625 73.7313 114.269 76.375 117.5 76.375ZM64.625 11.75V23.5C64.625 26.7313 67.2687 29.375 70.5 29.375C73.7313 29.375 76.375 26.7313 76.375 23.5V11.75C76.375 8.51875 73.7313 5.875 70.5 5.875C67.2687 5.875 64.625 8.51875 64.625 11.75ZM64.625 117.5V129.25C64.625 132.481 67.2687 135.125 70.5 135.125C73.7313 135.125 76.375 132.481 76.375 129.25V117.5C76.375 114.269 73.7313 111.625 70.5 111.625C67.2687 111.625 64.625 114.269 64.625 117.5ZM35.1912 26.9075C34.6477 26.3629 34.0021 25.9308 33.2914 25.636C32.5807 25.3411 31.8188 25.1894 31.0494 25.1894C30.2799 25.1894 29.5181 25.3411 28.8073 25.636C28.0966 25.9308 27.451 26.3629 26.9075 26.9075C26.3629 27.451 25.9308 28.0966 25.636 28.8073C25.3411 29.5181 25.1894 30.2799 25.1894 31.0494C25.1894 31.8188 25.3411 32.5807 25.636 33.2914C25.9308 34.0021 26.3629 34.6477 26.9075 35.1912L33.135 41.4188C35.4262 43.71 39.1863 43.71 41.4188 41.4188C43.6513 39.1275 43.71 35.3675 41.4188 33.135L35.1912 26.9075ZM107.865 99.5813C107.321 99.0366 106.676 98.6045 105.965 98.3097C105.254 98.0149 104.493 97.8631 103.723 97.8631C102.954 97.8631 102.192 98.0149 101.481 98.3097C100.77 98.6045 100.125 99.0366 99.5813 99.5813C99.0366 100.125 98.6045 100.77 98.3097 101.481C98.0149 102.192 97.8631 102.954 97.8631 103.723C97.8631 104.493 98.0149 105.254 98.3097 105.965C98.6045 106.676 99.0366 107.321 99.5813 107.865L105.809 114.093C108.1 116.384 111.86 116.384 114.093 114.093C114.637 113.549 115.069 112.903 115.364 112.193C115.659 111.482 115.811 110.72 115.811 109.951C115.811 109.181 115.659 108.419 115.364 107.709C115.069 106.998 114.637 106.352 114.093 105.809L107.865 99.5813ZM114.093 35.1912C114.637 34.6477 115.069 34.0021 115.364 33.2914C115.659 32.5807 115.811 31.8188 115.811 31.0494C115.811 30.2799 115.659 29.5181 115.364 28.8073C115.069 28.0966 114.637 27.451 114.093 26.9075C113.549 26.3629 112.903 25.9308 112.193 25.636C111.482 25.3411 110.72 25.1894 109.951 25.1894C109.181 25.1894 108.419 25.3411 107.709 25.636C106.998 25.9308 106.352 26.3629 105.809 26.9075L99.5813 33.135C97.29 35.4262 97.29 39.1863 99.5813 41.4188C101.873 43.6513 105.633 43.71 107.865 41.4188L114.093 35.1912ZM41.4188 107.865C41.9634 107.321 42.3955 106.676 42.6903 105.965C42.9851 105.254 43.1369 104.493 43.1369 103.723C43.1369 102.954 42.9851 102.192 42.6903 101.481C42.3955 100.77 41.9634 100.125 41.4188 99.5813C40.8752 99.0366 40.2296 98.6045 39.5189 98.3097C38.8082 98.0149 38.0463 97.8631 37.2769 97.8631C36.5074 97.8631 35.7455 98.0149 35.0348 98.3097C34.3241 98.6045 33.6785 99.0366 33.135 99.5813L26.9075 105.809C24.6162 108.1 24.6162 111.86 26.9075 114.093C29.1987 116.325 32.9587 116.384 35.1912 114.093L41.4188 107.865V107.865Z" fill="white"/>
</svg>
