<svg width="100" height="75" viewBox="0 0 100 75" fill="none" xmlns="http://www.w3.org/2000/svg">
<path d="M30.9352 60.7239L10.0831 39.8718C9.53785 39.3199 8.88845 38.8817 8.17256 38.5826C7.45668 38.2836 6.68855 38.1296 5.9127 38.1296C5.13685 38.1296 4.36872 38.2836 3.65283 38.5826C2.93695 38.8817 2.28755 39.3199 1.74228 39.8718C1.19036 40.4171 0.752154 41.0665 0.453078 41.7824C0.154002 42.4983 0 43.2664 0 44.0423C0 44.8181 0.154002 45.5862 0.453078 46.3021C0.752154 47.018 1.19036 47.6674 1.74228 48.2127L26.7052 73.1756C29.0287 75.4991 32.7821 75.4991 35.1056 73.1756L98.2577 10.0831C98.8096 9.53785 99.2479 8.88845 99.5469 8.17256C99.846 7.45668 100 6.68855 100 5.9127C100 5.13685 99.846 4.36872 99.5469 3.65283C99.2479 2.93695 98.8096 2.28755 98.2577 1.74228C97.7124 1.19036 97.063 0.752153 96.3472 0.453077C95.6313 0.154001 94.8632 0 94.0873 0C93.3115 0 92.5433 0.154001 91.8274 0.453077C91.1115 0.752153 90.4621 1.19036 89.9169 1.74228L30.9352 60.7239Z" fill="#6DE74F"/>
</svg>
