<svg width="100" height="112" viewBox="0 0 100 112" fill="none" xmlns="http://www.w3.org/2000/svg">
<path d="M44.4444 77.7778H55.5556V88.8889H44.4444V77.7778ZM44.4444 33.3333H55.5556V66.6667H44.4444V33.3333ZM88.8889 11.1111H65.6667C63.3333 4.66667 57.2222 0 50 0C42.7778 0 36.6667 4.66667 34.3333 11.1111H11.1111C10.3333 11.1111 9.61111 11.1667 8.88889 11.3333C7.11952 11.7046 5.46689 12.5003 4.07328 13.6519C2.67967 14.8036 1.58685 16.2767 0.888889 17.9444C0.333334 19.2222 0 20.6667 0 22.2222V100C0 101.5 0.333334 103 0.888889 104.333C1.44444 105.667 2.27778 106.833 3.27778 107.889C4.77778 109.389 6.72222 110.5 8.88889 110.944C9.61111 111.056 10.3333 111.111 11.1111 111.111H88.8889C95 111.111 100 106.111 100 100V22.2222C100 16.1111 95 11.1111 88.8889 11.1111ZM50 9.72222C52.2778 9.72222 54.1667 11.6111 54.1667 13.8889C54.1667 16.1667 52.2778 18.0556 50 18.0556C47.7222 18.0556 45.8333 16.1667 45.8333 13.8889C45.8333 11.6111 47.7222 9.72222 50 9.72222ZM88.8889 100H11.1111V22.2222H88.8889V100Z" fill="#E74F4F"/>
</svg>
