<svg width="100" height="98" viewBox="0 0 100 98" fill="none" xmlns="http://www.w3.org/2000/svg">
<path d="M47.738 39.4246C48.1344 39.5567 48.545 39.6531 48.9593 39.7139C49.6199 39.8817 50.2913 39.9995 50.9698 40.071C51.2929 41.6257 52.1305 43.0262 53.3473 44.0464C54.5641 45.0667 56.0891 45.6471 57.6764 45.6942C59.2636 45.7412 60.8204 45.2521 62.0955 44.3057C63.3706 43.3593 64.2896 42.0109 64.7042 40.4781C65.4827 37.6712 65.8827 34.7715 65.8934 31.8575C67.5975 29.5456 68.9992 27.0254 70.0644 24.3582L70.1108 24.251L70.4929 23.3226L70.9822 22.087C71.5048 20.7334 71.9989 19.3689 72.4642 17.9945L72.5606 17.7088L72.5963 17.5945C72.8392 16.8803 73.082 16.0875 73.3105 15.2876C73.4462 14.827 73.5748 14.3591 73.6998 13.8878C74.2868 11.7975 74.6719 9.65576 74.8497 7.49194V7.3848C74.9116 5.61369 74.3128 3.8828 73.1697 2.52853C72.0267 1.17426 70.4209 0.293326 68.6646 0.056933C67.2754 -0.121327 65.8647 0.121248 64.6149 0.753295C63.5173 1.30908 62.5819 2.13898 61.8993 3.16255C61.2167 4.18613 60.8101 5.36868 60.7189 6.59559V6.63131C60.4407 8.81498 59.9258 10.9619 59.1833 13.0343C58.8262 14.1056 58.4691 15.1234 58.112 16.034C57.3978 15.6662 56.6478 15.3555 55.8836 15.1055L55.8158 15.0734C52.6002 14.051 49.1112 14.3369 46.1049 15.869C43.0986 17.401 40.817 20.056 39.7545 23.2585C38.692 26.4611 38.9341 29.9533 40.4285 32.9786C41.9228 36.0039 44.549 38.3185 47.738 39.421V39.4246V39.4246ZM61.2581 39.5353C61.0681 40.2404 60.6619 40.8681 60.0965 41.3303C59.5312 41.7925 58.8352 42.0659 58.1065 42.112C57.3777 42.1581 56.6528 41.9747 56.0338 41.5874C55.4147 41.2002 54.9326 40.6286 54.6552 39.9531C55.3337 39.8317 56.0015 39.6603 56.6514 39.4389C58.6158 38.7399 60.4229 37.6598 61.9688 36.2606C61.7902 37.3677 61.5545 38.4568 61.2581 39.5353ZM43.0099 24.3225C43.3918 23.171 43.9968 22.106 44.7904 21.1884C45.5841 20.2708 46.5507 19.5186 47.6352 18.9747C48.7196 18.4308 49.9006 18.106 51.1106 18.0187C52.3207 17.9313 53.536 18.0833 54.6873 18.4659L54.7945 18.5016C55.4908 18.723 56.1622 19.0158 56.7978 19.3729L56.7228 19.5479V19.5908C55.9243 21.4491 54.8399 23.1709 53.5089 24.6939L53.4517 24.751L53.3624 24.8546C53.2486 24.9889 53.1294 25.1188 53.0053 25.2438C52.8874 25.1957 52.7684 25.1504 52.6482 25.1081L52.5411 25.0724C51.9728 24.8845 51.3532 24.9293 50.8178 25.197C50.2825 25.4647 49.8749 25.9335 49.6842 26.5008C49.5773 26.7773 49.5315 27.0737 49.55 27.3696C49.5685 27.6655 49.6508 27.9539 49.7914 28.215C50.0056 28.6721 50.3699 29.0399 50.8234 29.2577C50.9448 29.2863 51.0627 29.3184 51.1805 29.3577C51.5019 29.472 51.8376 29.547 52.1768 29.5755C52.7204 29.6077 53.2619 29.4838 53.7374 29.2184C53.9874 29.0899 54.2266 28.9435 54.4516 28.7756C55.0516 28.3042 55.6015 27.7757 56.0872 27.1865L56.1229 27.1508C57.7184 25.353 59.0168 23.312 59.969 21.1049C60.0801 20.8517 60.1849 20.5957 60.2832 20.3371C60.2878 20.3196 60.2878 20.3011 60.2832 20.2836L60.3189 20.1979C60.5176 19.7325 60.7105 19.2646 60.8974 18.7944L61.0189 18.4837L61.1403 18.1695C62.6544 14.5448 63.7115 10.7452 64.2935 6.85985C64.3614 5.93332 64.7881 5.06981 65.4827 4.45294C66.1747 3.83722 67.0827 3.52127 68.0075 3.57445C68.7753 3.61731 69.5073 3.91728 70.0787 4.43152C70.4782 4.78181 70.7945 5.21684 71.0046 5.7049C71.2146 6.19295 71.3131 6.72173 71.2929 7.25267C71.2572 7.82048 71.1893 8.42042 71.0965 9.03822C70.8108 10.7952 70.4108 12.5379 69.8966 14.2413L69.7466 14.7412C69.098 16.8692 68.3654 18.9707 67.5504 21.0406L67.4325 21.3406C67.2303 21.8532 67.0231 22.3639 66.8112 22.8726L66.7576 23.0012L66.4505 23.744C65.1948 26.6574 63.491 29.3565 61.401 31.7432C59.7284 33.8717 57.4479 35.441 54.8623 36.2428C53.6497 36.5721 52.384 36.6595 51.1377 36.4999C50.6287 36.4368 50.125 36.3365 49.6307 36.1999C49.3704 36.1774 49.1138 36.1235 48.8664 36.0392C47.7124 35.6547 46.6454 35.0466 45.7264 34.2496C44.8074 33.4526 44.0545 32.4823 43.5106 31.3942C42.9667 30.3062 42.6426 29.1216 42.5567 27.9082C42.4707 26.6948 42.6247 25.4763 43.0099 24.3225V24.3225ZM35.9141 7.06698C35.5403 7.33193 35.1171 7.51925 34.6697 7.61787C34.2222 7.7165 33.7595 7.72443 33.309 7.64119C32.8584 7.55795 32.4291 7.38524 32.0464 7.13325C31.6637 6.88127 31.3354 6.55513 31.0809 6.17411C30.8264 5.79309 30.6509 5.36492 30.5647 4.9149C30.4785 4.46489 30.4834 4.00216 30.5791 3.55407C30.6748 3.10597 30.8593 2.68161 31.1218 2.30605C31.3843 1.93049 31.7194 1.61136 32.1073 1.36752C32.8632 0.892404 33.7746 0.730891 34.6477 0.917332C35.5208 1.10377 36.2867 1.62346 36.7826 2.36587C37.2785 3.10828 37.4651 4.01485 37.303 4.89278C37.1408 5.77071 36.6425 6.55073 35.9141 7.06698V7.06698ZM78.4386 74.3677C78.8162 74.0996 79.2437 73.9098 79.6958 73.8098C80.148 73.7097 80.6156 73.7013 81.071 73.7851C81.5265 73.8689 81.9605 74.0431 82.3474 74.2975C82.7344 74.5519 83.0664 74.8814 83.3238 75.2663C83.5812 75.6512 83.7588 76.0839 83.8462 76.5387C83.9335 76.9935 83.9287 77.4611 83.8322 77.914C83.7356 78.3669 83.5493 78.7959 83.2841 79.1755C83.0189 79.5552 82.6803 79.8778 82.2882 80.1243C81.5248 80.6043 80.6042 80.7677 79.7222 80.5797C78.8402 80.3917 78.0662 79.8671 77.5649 79.1175C77.0636 78.3678 76.8744 77.4522 77.0376 76.5652C77.2007 75.6783 77.7033 74.8899 78.4386 74.3677V74.3677ZM82.0061 24.6796C83.1048 24.6796 84.1584 24.2431 84.9353 23.4663C85.7122 22.6894 86.1486 21.6358 86.1486 20.5371C86.1486 19.4385 85.7122 18.3848 84.9353 17.608C84.1584 16.8311 83.1048 16.3947 82.0061 16.3947C80.9075 16.3947 79.8538 16.8311 79.077 17.608C78.3001 18.3848 77.8637 19.4385 77.8637 20.5371C77.8637 21.6358 78.3001 22.6894 79.077 23.4663C79.8538 24.2431 80.9075 24.6796 82.0061 24.6796V24.6796ZM16.5981 23.9796C16.1461 24.2955 15.6357 24.5179 15.0966 24.6339C14.5576 24.7498 14.0008 24.757 13.4589 24.655C12.9171 24.553 12.401 24.3438 11.9411 24.0398C11.4811 23.7357 11.0864 23.3429 10.7803 22.8844C10.4741 22.4258 10.2625 21.9107 10.158 21.3693C10.0535 20.828 10.0581 20.2712 10.1715 19.7316C10.285 19.192 10.5051 18.6805 10.8188 18.2271C11.1325 17.7737 11.5336 17.3874 11.9985 17.091C12.9125 16.4811 14.0313 16.2592 15.1089 16.4742C16.1865 16.6891 17.1345 17.3234 17.7444 18.2373C18.3544 19.1513 18.5762 20.2701 18.3613 21.3477C18.1463 22.4253 17.5121 23.3733 16.5981 23.9832V23.9796Z" fill="white"/>
<path d="M97.8226 46.0275C97.3778 46.2331 96.8969 46.349 96.4073 46.3686C95.9177 46.3882 95.429 46.3111 94.9693 46.1418C91.1821 44.7247 87.0956 44.2988 83.0976 44.9044C79.0996 45.51 75.3226 47.1271 72.125 49.6021C80.4349 49.8164 88.5592 52.0805 95.7763 56.2051C97.5411 57.2012 98.8404 58.8547 99.3911 60.8049C99.9418 62.7551 99.6991 64.844 98.716 66.616C97.7329 68.3881 96.0891 69.6996 94.143 70.2646C92.1969 70.8297 90.1063 70.6024 88.327 69.6324C84.0548 67.1528 79.3035 65.6115 74.3893 65.1109C69.4751 64.6103 64.5106 65.1619 59.8262 66.7291C61.0225 69.0253 61.9188 71.4679 62.4866 73.9962C62.6902 74.7497 62.7902 75.5318 62.7866 76.3103C62.9078 77.2972 62.8176 78.2986 62.5221 79.248C62.2265 80.1975 61.7324 81.0731 61.0725 81.8169C60.7868 82.1026 60.469 82.3526 60.1262 82.5633C59.071 83.5768 57.774 84.3034 56.3587 84.6738L10.8702 96.8512C9.40351 97.2426 7.85967 97.2407 6.39397 96.8458C4.92828 96.451 3.59244 95.677 2.5209 94.6019C1.44935 93.5267 0.679903 92.1883 0.289982 90.7212C-0.0999394 89.2542 -0.0965771 87.7104 0.299732 86.2451L12.4771 40.7494C12.8511 39.318 13.5893 38.0078 14.6198 36.9462C14.8231 36.6169 15.0627 36.3115 15.334 36.0356C16.0545 35.3919 16.9017 34.9063 17.8212 34.6098C18.7407 34.3134 19.712 34.2127 20.6728 34.3143C21.5406 34.2929 22.4083 34.4036 23.244 34.6429C25.4618 35.1439 27.6123 35.9063 29.6505 36.9141C30.6504 31.1289 29.6862 25.1723 26.9043 20.0014C26.3787 19.0211 26.264 17.8722 26.5854 16.8074C26.9069 15.7425 27.6382 14.849 28.6185 14.3234C29.5987 13.7977 30.7476 13.683 31.8125 14.0045C32.8773 14.3259 33.7708 15.0572 34.2965 16.0375C38.473 23.818 39.5253 32.8984 37.2391 41.4279C40.0112 43.3958 42.6467 45.5494 45.1276 47.8737C45.8799 47.111 46.9005 46.6725 47.9716 46.6517C49.0427 46.6309 50.0795 47.0295 50.8609 47.7624C51.6422 48.4953 52.1063 49.5045 52.154 50.5747C52.2017 51.645 51.8293 52.6915 51.1163 53.4911C56.2896 51.4665 61.7289 50.2023 67.2648 49.7378C66.8258 49.3855 66.4717 48.9389 66.2289 48.431C65.986 47.9232 65.8606 47.3672 65.862 46.8043C65.8634 46.2414 65.9915 45.6861 66.2368 45.1794C66.4821 44.6728 66.8383 44.2279 67.279 43.8777C71.494 40.5441 76.4984 38.3553 81.8074 37.5233C87.1165 36.6912 92.5505 37.244 97.5833 39.1281C98.2731 39.3894 98.8702 39.8487 99.2998 40.4483C99.7294 41.0479 99.9722 41.7611 99.9978 42.4982C100.023 43.2354 99.8305 43.9637 99.4435 44.5916C99.0565 45.2195 98.4926 45.719 97.8226 46.0275V46.0275ZM33.9429 72.3L33.2966 71.7464L33.8894 72.2535L33.9429 72.2964V72.3ZM33.9429 72.3L34.4143 72.6999C34.2581 72.5644 34.101 72.4299 33.9429 72.2964V72.3ZM7.32406 93.398C8.18112 93.6301 9.08818 93.6301 9.94881 93.4015L12.0129 92.8623C9.09399 90.7459 6.47206 88.2477 4.21721 85.4344L3.7494 87.1843C3.57591 87.827 3.53076 88.4976 3.61653 89.1577C3.7023 89.8179 3.91731 90.4547 4.24927 91.0318C4.58124 91.6088 5.02366 92.1148 5.55124 92.5208C6.07883 92.9268 6.68124 93.2249 7.32406 93.398V93.398ZM13.0235 84.4452C15.5647 86.7897 18.425 88.7626 21.5191 90.3054L31.511 87.6306C27.6228 85.3331 23.9948 82.6211 20.6906 79.5421C16.3707 75.4606 12.5991 70.8355 9.47029 65.7827L6.63484 76.3853C8.37043 79.362 10.5216 82.0759 13.0235 84.4452V84.4452ZM25.583 74.3212C30.3488 78.7214 35.8164 82.2941 41.7601 84.8916L50.6556 82.5061C42.5208 79.2898 35.1925 74.3242 29.1898 67.9611C27.0879 65.871 25.1041 63.6654 23.2475 61.3546C22.4262 60.3368 21.662 59.3191 20.9478 58.3085C18.2756 54.7005 16.1438 50.7221 14.6198 46.4989L12.1093 56.0015C15.5173 62.8352 20.075 69.0321 25.583 74.3212V74.3212ZM95.3407 60.3583C94.9901 59.9337 94.5578 59.5839 94.0693 59.3298H94.0515C87.9993 55.8681 81.2523 53.7975 74.3002 53.2681C67.3481 52.7388 60.3654 53.764 53.8589 56.2694L53.1733 56.5193L53.2054 56.555C46.4396 59.2644 40.3991 63.5147 35.5642 68.9681C36.4891 69.7788 37.3855 70.5216 38.2747 71.2358C39.521 72.2357 40.7744 73.1606 42.2029 74.0927C46.0999 69.6077 51.0396 66.1495 56.5872 64.0222C61.9965 61.9003 67.8135 61.0211 73.6083 61.4494C79.4031 61.8778 85.0276 63.6028 90.0662 66.497C90.8973 66.9955 91.8781 67.184 92.8349 67.0292C93.7917 66.8743 94.6628 66.386 95.2943 65.6507C95.9257 64.9153 96.2767 63.9804 96.2852 63.0111C96.2937 62.0419 95.9591 61.101 95.3407 60.3547V60.3583Z" fill="white"/>
</svg>
