<svg xmlns="http://www.w3.org/2000/svg" viewBox="0 0 429.05 740.14"><defs><style>.cls-1{fill:#01cd5c;}.cls-2{fill:#fdf21a;}.cls-3{fill:#1b61c3;}.cls-4{fill:#f4fbf8;}.cls-5{fill:#009b3b;}.cls-6{fill:#cf001a;}.cls-7{fill:#fff;}.cls-8{fill:#1712b4;}</style></defs><g id="Camada_2" data-name="Camada 2"><g id="Camada_1-2" data-name="Camada 1"><polygon class="cls-1" points="429.05 285.62 142.3 386.52 130.81 390.59 0.57 436.8 0 436.59 0 150.92 135.88 103.12 216.17 74.87 428.94 0 428.47 1.24 419.32 25.05 409.57 50.47 399.81 75.9 390.05 101.32 380.29 126.75 370.53 152.16 366.45 162.77 365.03 166.5 366.06 168.43 369.38 174.59 379.35 193.15 389.32 211.7 399.3 230.25 409.27 248.81 419.24 267.36 429.05 285.62"/><polygon class="cls-2" points="365.03 166.5 366.06 168.43 214.11 318.98 58.06 273 213.51 118.98 366.45 162.77 365.03 166.5"/><path class="cls-3" d="M276,211.48a28.36,28.36,0,0,1-1.21,4.55c-6.13,19-17.12,35.79-33.84,50.33a96.08,96.08,0,0,1-30.91,18.33c-28.5,10.17-54.24,1.3-62.13-23.78-3.53-11.21-3.22-23.92.78-37.82a2,2,0,0,1,.45-1c6.22-2.9,12.31-5.65,18.3-8a221.61,221.61,0,0,1,31.83-9.94,156.06,156.06,0,0,1,22.93-3.5c16.95-1.23,31.52.9,44.09,6A86,86,0,0,1,276,211.48Zm-58.13,26,0,0v.06c0-.47-.47-.86.46-1.54-.73.35-1,.1-1.13-.67a1.74,1.74,0,0,1-1.13,1.6c.64,0,.52.55.34,1.33C217,237.13,217.47,237.3,217.89,237.46Zm15.47,9.23c.66-.49,1.33-1.26,2-.55a4,4,0,0,1-.23-1.21c0-.36.59-.6.72-1-1.07.37-1.07.37-1.48-.61a2.13,2.13,0,0,1-1.57,2c1,0,1,.58.57,1.47h0Zm12-3.57,0,0,0,.06a1.66,1.66,0,0,1,.58-2.1c-1,.61-1.27.16-1.51-.51a2,2,0,0,1-1.43,1.84c.81,0,1,.54.49,1.67C244.14,242.58,244.72,243,245.32,243.12Zm6.54-5h-.05l0,0,0,.06a1.61,1.61,0,0,1,.59-2.05c-.94.59-1.27.2-1.46-.51a2,2,0,0,1-1.43,1.8c.94-.05.79.7.55,1.62C250.72,237.63,251.29,237.94,251.86,238.1ZM159,263.22h-.07l0,0,0,.08c-.19-.93-.67-1.81.95-3a1.28,1.28,0,0,0,.07-.3c-1.6,1.1-2.2.59-2.43-.62a3.29,3.29,0,0,1-2.73,2.82c1.63,0,1.63.91.68,2.63,1.93-1.92,1.93-1.92,3.42-1.58Zm78.23-13,0,0v-.06c.05.07.08.21.16.21.92,0,1,.66.55,1.71,0,0,0,.08.09.19.75-1.4,1.52-1.45,2.33-1.06-.6-.81-.4-1.66.71-2.72-1.31,1-1.7.35-1.89-.7C238.62,249.7,238.62,249.7,237.23,250.24Zm15.1-6.11,0,0,0,0c-.57-.7-.32-1.55.7-2.57-1.18.8-1.72.56-1.83-.61a2.46,2.46,0,0,1-1.93,2.33c1.17,0,1.21.8.7,2.06.74-1.11,1.42-1.65,2.14-1.12C252.14,244.28,252.26,244.18,252.33,244.13Zm-30.43,1.24c-.92-1.06-.21-2.2,1-3.46-1.63,1.13-2.3.69-2.52-.75a3.17,3.17,0,0,1-2.65,3c1.79-.17,1.6,1,1,2.56C219.84,245.12,220.82,244.61,221.9,245.37Zm-60.41-25.32c-.16,2-1.19,3-3.21,3.32,1.88.1,2.18,1.07,1.12,2.9.79-.65,1.45-1.53,2.08-1.74s1.22.24,1.82.4c-1-1.13-.26-2.38,1.61-3.85C162.39,222,162.39,222,161.49,220.05Zm9.45,29c-2.48.7-2.48.7-3.09-.84-.52.73-.39,1.5-.92,2.12s-1.46.61-2.47,1.29c2-.15,2.17.87,1.23,2.75,1.29-1.75,2.5-2.4,3.84-1.63C168.58,251.56,169.19,250.38,170.94,249.06Zm89.55-28.76c.37.18.94.22,1.07.59a5.89,5.89,0,0,1-.38,2c1-1.76,1.84-1.95,2.75-1.28-.84-1-.39-2,.75-3.14-1.36.94-1.95.53-2.12-.78C262.36,219.13,261.79,220.05,260.49,220.3Zm-71.05,41.56c1.65-.07,2,.81,1,2.8,1.26-2.12,2.41-2.24,3.65-1.73-1-1.06-.39-2.27,1.13-3.69-1.92,1.36-2.58.71-2.77-.81C191.5,260.81,191.5,260.81,189.44,261.86Zm39.77-32.74c-.23-1.33-.23-1.33.91-2.85-1.37,1-1.88.51-2.05-.58-.24,1.23-.73,2.11-2.07,2.32,1.18.07,1.33.81.61,2.28C228,228.75,228,228.75,229.21,229.12Zm-34.64-4.58c0,1.54-1,2.1-2.35,2.51,1.48,0,1.47.87.88,2.24,1.05-1.48,2-1.67,3-1.08-.83-.89-.42-1.84.87-3C195.42,226.13,194.84,225.71,194.57,224.54Zm27.4,1.72c-.71-.87-.31-1.8.91-2.84-.71.23-1.29.57-1.6.47s-.38-.67-.56-1a2.51,2.51,0,0,1-2.19,2.25c1.34,0,1.32.89.8,2.22C220.25,225.79,221.07,225.72,222,226.26ZM186.18,250c-1.44.82-2.2.66-2.2-1a7.54,7.54,0,0,1-.9,2.08,5.35,5.35,0,0,1-1.62.81c1.35.07,1.43.94.72,2.45,1.06-1.55,2-1.95,3.07-1.31C184.56,252.14,184.78,251.2,186.18,250Zm74.07-17.12c.76-1.31,1.46-1.52,2.25-1-.63-.81-.26-1.64.63-2.58-1.13.8-1.57.41-1.76-.64a2.19,2.19,0,0,1-1.78,2.22C260.64,231,260.81,231.6,260.25,232.91Zm2.73-8.27c1.22-.09,1.07.81.73,1.92.75-1.3,1.41-1.35,2.16-.91-.64-.79-.28-1.6.62-2.56-1.21.93-1.51.27-1.74-.59A2.16,2.16,0,0,1,263,224.64Zm-50.77,9c.89.13,1.06.7.6,1.75.73-1,1.38-1.31,2.16-.84-.75-.68-.1-1.45.58-2.32-1.21,1-1.37.17-1.73-.61A1.9,1.9,0,0,1,212.21,233.59ZM179.3,260.12c1.3-.2,1.14.65.81,1.67.8-1.18,1.54-1.32,2.33-1.07-.46-.7-.26-1.42.76-2.29-1.13.61-1.7.37-1.81-.7C180.83,259.27,180.83,259.27,179.3,260.12Zm76.18-24.28c.73.12.89.64.54,1.6.58-1,1.12-1.09,1.76-.81-.59-.61-.11-1.28.5-2.06-.9.69-1.21.31-1.4-.41A1.81,1.81,0,0,1,255.48,235.84Zm-3,12.43c-.88.33-.88.33-1.45-.41-.31,1.12-.31,1.12-1.5,1.76.87,0,1,.53.62,1.58.65-1,1.2-1.23,1.8-.88C251.56,249.68,251.71,249,252.44,248.27ZM236.5,205.16c.84.14.9.74.56,1.72.63-1.19,1.24-1,1.95-.78-.8-.66,0-1.35.63-2.2-1,.65-1.51.51-1.6-.41C237.83,204.4,237.44,205,236.5,205.16Zm34.87,11.4c-.92.75-1.13.14-1.37-.46a1.66,1.66,0,0,1-1.28,1.62c.82,0,.75.68.5,1.52.53-.9,1-1.07,1.61-.75C270.53,217.87,270.64,217.29,271.37,216.56Zm-97.13,27.31c1-.14.59.61.52,1.32a1.32,1.32,0,0,1,1.76-.73c-.41-.58-.24-1.06.39-1.64-.79.35-1.12.12-1.28-.59A1.93,1.93,0,0,1,174.24,243.87ZM220,266.41c.76,0,.19-.74.64-.88-.21-.08-.42-.31-.63-.21s-.45.53-.68.81C219.78,265.9,219.24,267.24,220,266.41Z"/><path class="cls-3" d="M154.08,209.4c-.08-.46.29-.94.52-1.4,10.94-21.77,26.79-38.25,46.83-49.23,10.79-5.92,21.34-9,31.53-9.53,20.94-1.13,36.66,9.22,42.74,27a56.68,56.68,0,0,1,2.29,24.6,1.47,1.47,0,0,1-.19.84,82.19,82.19,0,0,0-22-8.28c-12.9-2.9-27.35-3.38-43.61-1.13A192.27,192.27,0,0,0,185.5,198,258.37,258.37,0,0,0,154.08,209.4Zm84-21.08c1.6,0,1.45,1.09.91,2.56,1-1.75,1.91-1.64,2.94-1.06-.93-1-.39-2,.85-3.1-1.57,1-2.05.24-2.35-.93A2.49,2.49,0,0,1,238.1,188.32Z"/><path class="cls-4" d="M154.08,209.4A258.37,258.37,0,0,1,185.5,198a192.27,192.27,0,0,1,26.72-5.77c16.26-2.25,30.71-1.77,43.61,1.13a82.19,82.19,0,0,1,22,8.28,22.62,22.62,0,0,1-.58,4.38,43.27,43.27,0,0,1-1.2,5.42,86,86,0,0,0-9.71-4.81c-12.57-5.11-27.14-7.24-44.09-6a156.06,156.06,0,0,0-22.93,3.5,221.61,221.61,0,0,0-31.83,9.94c-6,2.34-12.08,5.09-18.3,8a52.56,52.56,0,0,1,2.88-8.31A25,25,0,0,1,154.08,209.4Zm40.5-9.69c.25,1.2.46,2.16.65,3.13.07.39.19.64.73.51s.59-.51.74-.88a29.93,29.93,0,0,1,1.5-3.52c-.13,1.28-.24,2.26-.34,3.24,0,.36-.11.72.47.59s.65-.51.7-.92c.18-1.6.37-3.21.52-4.8,0-.38.35-1-.46-.87s-1.18.25-1.47,1.14c-.37,1.18-.9,2.37-1.37,3.56a17.14,17.14,0,0,1-.88-3.32c-.13-.83-.89-.19-1.36-.18s-.48.39-.51.69c-.2,1.79-.38,3.57-.59,5.36,0,.45.06.63.57.51s.51-.46.58-.78A28.08,28.08,0,0,1,194.58,199.71Zm-10.37,3.61-.06,0c-.06.83-.1,1.66-.2,2.51-.08.6.09.79.77.57,1.6-.51,3.18-1,4.76-1.41.49-.14.78-.29.81-.85s-.32-.52-.77-.38c-1.19.36-2.39.68-3.59,1.08-.76.25-.73-.16-.7-.66s.06-.93.82-1.1,1.76-.5,2.63-.71a.82.82,0,0,0,.71-.84c.05-.5-.26-.42-.64-.3-.84.25-1.69.46-2.53.73-.56.17-.83.1-.79-.49s.38-.71.85-.84c1.09-.31,2.18-.65,3.26-.94.48-.13.78-.26.81-.84s-.32-.5-.77-.37c-1.5.43-3,.86-4.53,1.26-.55.15-.78.4-.78.91C184.27,201.54,184.23,202.44,184.21,203.32Zm70.91-4.81.44.09c.58.14,1.16.28,1.73.44.29.08.45,0,.63-.41s.13-.55-.17-.62a15.31,15.31,0,0,1-1.52-.37c-.31-.09-.87.06-.47-.78s.71-.45,1-.38a18.27,18.27,0,0,1,2,.5c.35.1.5-.12.67-.49s.13-.53-.17-.6c-1.05-.25-2.11-.52-3.16-.8-.3-.08-.46,0-.63.41-.72,1.63-1.45,3.25-2.2,4.88-.22.46-.1.57.22.64,1.1.25,2.2.5,3.28.78.32.09.48,0,.69-.43s.1-.61-.24-.68c-.84-.18-1.67-.38-2.5-.6-.16,0-.44,0-.25-.4A4.18,4.18,0,0,1,255.12,198.51Zm-88.69,12.94c-.4-.85.3-1.36,1.41-1.68a3,3,0,0,0,.56-.23c1-.51,1.48-.25,1.65.51a3.08,3.08,0,0,1,.16.73c0,.54.31.48.78.3s.56-.53.5-.86c-.1-.53-.09-1.12-.47-1.47s-.17-.56.14-1a1.9,1.9,0,0,0,.25-2.32,1.71,1.71,0,0,0-2.1-.43c-1.24.43-2.49.93-3.75,1.37-.49.18-.66.44-.65.85.07,1.83.13,3.66.17,5.5,0,.48.25.54.79.31s.71-.52.61-.93A6,6,0,0,1,166.43,211.45Zm66.38-17.61c-.05-.81-.41-1.33-1.22-1.35s-1.86,0-2.77,0c-.44,0-.58.19-.71.6-.51,1.7-1,3.4-1.58,5.11-.15.49-.12.67.36.66s.58-.26.69-.65.26-.82.37-1.23.17-.45.5-.52c1.77-.36,2.11,0,1.89,1.82,0,0,0,.06,0,.09-.11.49.24.36.51.38s.4-.27.46-.5a3.17,3.17,0,0,0,.22-1.11,1.88,1.88,0,0,1,.72-1.81A2.32,2.32,0,0,0,232.81,193.84Zm-58.17,12.51.13,0c0,.94,0,1.88-.08,2.82,0,.43.13.55.62.37,1-.36,2-.62,3-1a4.53,4.53,0,0,0,3-4.27c0-2-1-2.78-2.93-2.29-.94.23-1.9.63-2.85.9a.9.9,0,0,0-.79,1C174.72,204.66,174.67,205.51,174.64,206.35Zm78.49-10.69c0-.73-.26-1.22-.9-1.35s-1.46-.25-2.17-.43c-.46-.11-.7,0-.94.64-.6,1.47-1.26,2.94-1.88,4.42-.16.38-.51.84.09.94s.64-.43.8-.79c.61-1.38.6-1.38,1.69-1.19a1.81,1.81,0,0,0,.23,0c.6,0,.78.37.59,1.06a6.23,6.23,0,0,1-.22.82c-.2.44-.08.57.25.64s.49-.23.6-.53a4.13,4.13,0,0,0,.34-1.44,1,1,0,0,1,.49-.91A2.57,2.57,0,0,0,253.13,195.66Zm9,1.5a2.19,2.19,0,0,0-1.2,1.24,1.22,1.22,0,0,0,.16,1.44c.47.44,1,.81,1.45,1.23a.48.48,0,0,1,.1.65.74.74,0,0,1-.54.43,1.1,1.1,0,0,1-1.39-1,.55.55,0,0,0-.85-.47c-.39.18-.29.69-.25,1a1.29,1.29,0,0,0,.45.8,2.53,2.53,0,0,0,1.58.62,2,2,0,0,0,2-1.19,1.36,1.36,0,0,0-.32-1.91c-.39-.34-.82-.63-1.22-1a.41.41,0,0,1-.08-.58c.13-.23.3-.45.53-.45.56,0,1.19,0,1.2.8,0,.53.32.52.6.62a.24.24,0,0,0,.34-.12,1.41,1.41,0,0,0,.09-1.16A2.44,2.44,0,0,0,262.15,197.16Zm5.79,7.89a1.94,1.94,0,0,0,1.19-2.57c-.25-.43-.67-.65-1-1s-.93-.43-.36-1.15.92-.19,1.28,0a.63.63,0,0,1,.26.66c-.09.64.43.65.73.52s.36-.67.32-1a1.26,1.26,0,0,0-.67-1,4.29,4.29,0,0,0-1.12-.41,1.67,1.67,0,0,0-1.86,1,1.42,1.42,0,0,0,.18,2c.36.36.75.69,1.11,1.06a.68.68,0,0,1-.64,1.06c-.57-.11-1.15-.2-1.12-1.08,0-.58-.49-.64-.8-.51s-.3.68-.26,1A2.11,2.11,0,0,0,267.94,205.05Zm-23.3-7.73c-.58.65-1.08.94-1.6.83s-.76-.55-.74-1.2a3.07,3.07,0,0,1,1.38-2.37c.88-.52,1.37-.2,1.65.49a.59.59,0,0,0,.92.23c.27-.19.12-.61.05-.87a1.5,1.5,0,0,0-1.42-1.21,3.36,3.36,0,0,0-2.76,1.66,3.74,3.74,0,0,0-.58,3.68c.44.77,1.37.94,2.45.48.19-.09.59-.51.39.14-.13.4.18.3.35.33s.35-.2.44-.43c.28-.73.57-1.46.84-2.19s-.3-.52-.56-.48c-.46.08-.85-.52-1.39.29-.12.17-.18.43.08.48Zm-19.3-3.23a1.27,1.27,0,0,0-1.44-1.38c-.9,0-1.82.1-2.73.15-.42,0-.66.18-.79.71-.43,1.72-.9,3.46-1.4,5.19-.15.51,0,.55.39.55s.62-.19.72-.62.21-.77.27-1.15a.73.73,0,0,1,.79-.71c.61,0,1.24-.06,1.86-.14A2.91,2.91,0,0,0,225.34,194.09Zm-63.46,17.58c.05-1.92-1.53-3-3.52-2.31a5.31,5.31,0,0,0-3.53,4.42c-.07,1.92,1.56,3,3.53,2.39A5.27,5.27,0,0,0,161.88,211.67Zm110.91-4.48a4.45,4.45,0,0,0,2.54-3.91c0-1.3-.89-2-2-1.56a4.56,4.56,0,0,0-2.6,3.92C270.69,207,271.58,207.68,272.79,207.19Zm-38.41-10.41c0,1.59,1,2.42,2.42,1.94a4.76,4.76,0,0,0,2.82-4.08c0-1.51-1-2.32-2.37-1.88A4.54,4.54,0,0,0,234.38,196.78Zm-26.23,2.41c0-.58.13-1.09,1-1.08a15.83,15.83,0,0,0,1.61-.26c.43,0,.54-.25.64-.65s-.09-.5-.45-.44c-.6.09-1.2.16-1.8.28-.38.08-.59,0-.54-.4s.3-.57.67-.62c.79-.11,1.58-.24,2.37-.38.32,0,.62-.08.7-.59s-.09-.59-.51-.52c-1.13.18-2.27.34-3.41.51a.77.77,0,0,0-.74.74c-.27,1.53-.56,3.07-.86,4.61-.08.43,0,.66.47.57,1.22-.22,2.43-.42,3.63-.61a.74.74,0,0,0,.68-.67c.12-.47-.13-.5-.48-.44-.86.14-1.71.26-2.57.42C208.22,199.72,208,199.67,208.15,199.19Z"/><path class="cls-4" d="M221.9,245.37c-1.08-.76-2.06-.25-3.14,1.38.57-1.55.76-2.73-1-2.56a3.17,3.17,0,0,0,2.65-3c.22,1.44.89,1.88,2.52.75C221.69,243.17,221,244.31,221.9,245.37Z"/><path class="cls-4" d="M161.49,220.05c.9,1.91.9,1.91,3.42,1-1.87,1.47-2.63,2.72-1.61,3.85-.6-.16-1.2-.61-1.82-.4s-1.29,1.09-2.08,1.74c1.06-1.83.76-2.8-1.12-2.9C160.3,223,161.33,222,161.49,220.05Z"/><path class="cls-4" d="M170.94,249.06c-1.75,1.32-2.36,2.5-1.41,3.69-1.34-.77-2.55-.12-3.84,1.63.94-1.88.73-2.9-1.23-2.75,1-.68,1.88-.59,2.47-1.29s.4-1.39.92-2.12C168.46,249.76,168.46,249.76,170.94,249.06Z"/><path class="cls-4" d="M260.49,220.3c1.3-.25,1.87-1.17,2.07-2.62.17,1.31.76,1.72,2.12.78-1.14,1.16-1.59,2.18-.75,3.14-.91-.67-1.76-.48-2.75,1.28a5.89,5.89,0,0,0,.38-2C261.43,220.52,260.86,220.48,260.49,220.3Z"/><path class="cls-4" d="M189.44,261.86c2.06-1.05,2.06-1.05,3-3.43.19,1.52.85,2.17,2.77.81-1.52,1.42-2.15,2.63-1.13,3.69-1.24-.51-2.39-.39-3.65,1.73C191.4,262.67,191.09,261.79,189.44,261.86Z"/><path class="cls-4" d="M229.21,229.12c-1.18-.37-1.18-.37-2.6,1.17.72-1.47.57-2.21-.61-2.28,1.34-.21,1.83-1.09,2.07-2.32.17,1.09.68,1.54,2.05.58C229,227.79,229,227.79,229.21,229.12Z"/><path class="cls-4" d="M194.57,224.54c.27,1.17.85,1.59,2.35.72-1.29,1.11-1.7,2.06-.87,3-1-.59-1.9-.4-3,1.08.59-1.37.6-2.26-.88-2.24C193.57,226.64,194.58,226.08,194.57,224.54Z"/><path class="cls-4" d="M252.33,244.13c-.07.05-.19.15-.22.13-.72-.53-1.4,0-2.14,1.12.51-1.26.47-2-.7-2.06A2.46,2.46,0,0,0,251.2,241c.11,1.17.65,1.41,1.83.61-1,1-1.27,1.87-.7,2.57Z"/><path class="cls-4" d="M222,226.26c-.9-.54-1.72-.47-2.64,1.07.52-1.33.54-2.2-.8-2.22a2.51,2.51,0,0,0,2.19-2.25c.18.36.24.92.56,1s.89-.24,1.6-.47C221.66,224.46,221.26,225.39,222,226.26Z"/><path class="cls-4" d="M186.18,250c-1.4,1.17-1.62,2.11-.93,3.05-1.06-.64-2-.24-3.07,1.31.71-1.51.63-2.38-.72-2.45a5.35,5.35,0,0,0,1.62-.81,7.54,7.54,0,0,0,.9-2.08C184,250.69,184.74,250.85,186.18,250Z"/><path class="cls-4" d="M260.25,232.91c.56-1.31.39-1.95-.66-2a2.19,2.19,0,0,0,1.78-2.22c.19,1,.63,1.44,1.76.64-.89.94-1.26,1.77-.63,2.58C261.71,231.39,261,231.6,260.25,232.91Z"/><path class="cls-4" d="M263,224.64a2.16,2.16,0,0,0,1.77-2.14c.23.86.53,1.52,1.74.59-.9,1-1.26,1.77-.62,2.56-.75-.44-1.41-.39-2.16.91C264.05,225.45,264.2,224.55,263,224.64Z"/><path class="cls-4" d="M237.22,250.24c1.4-.54,1.4-.54,2-2.4.19,1,.58,1.66,1.89.7-1.11,1.06-1.31,1.91-.71,2.72-.81-.39-1.58-.34-2.33,1.06-.05-.11-.1-.15-.09-.19.44-1,.37-1.69-.55-1.71-.08,0-.11-.14-.16-.21Z"/><path class="cls-4" d="M159,263.21h-.1c-1.49-.34-1.49-.34-3.42,1.58,1-1.72,1-2.67-.68-2.63a3.29,3.29,0,0,0,2.73-2.82c.23,1.21.83,1.72,2.43.62a1.28,1.28,0,0,1-.07.3c-1.62,1.19-1.14,2.07-.95,3Z"/><path class="cls-4" d="M251.86,238.1c-.57-.16-1.14-.47-1.79.88.24-.92.39-1.67-.55-1.62a2,2,0,0,0,1.43-1.8c.19.71.52,1.1,1.46.51a1.61,1.61,0,0,0-.59,2.05Z"/><path class="cls-4" d="M212.21,233.59a1.9,1.9,0,0,0,1.61-2c.36.78.52,1.57,1.73.61-.68.87-1.33,1.64-.58,2.32-.78-.47-1.43-.15-2.16.84C213.27,234.29,213.1,233.72,212.21,233.59Z"/><path class="cls-4" d="M245.32,243.12c-.6-.15-1.18-.54-1.91.93.47-1.13.32-1.63-.49-1.67a2,2,0,0,0,1.43-1.84c.24.67.56,1.12,1.51.51a1.66,1.66,0,0,0-.58,2.1Z"/><path class="cls-4" d="M179.3,260.12c1.53-.85,1.53-.85,2.09-2.39.11,1.07.68,1.31,1.81.7-1,.87-1.22,1.59-.76,2.29-.79-.25-1.53-.11-2.33,1.07C180.44,260.77,180.6,259.92,179.3,260.12Z"/><path class="cls-4" d="M255.48,235.84a1.81,1.81,0,0,0,1.4-1.68c.19.72.5,1.1,1.4.41-.61.78-1.09,1.45-.5,2.06-.64-.28-1.18-.18-1.76.81C256.37,236.48,256.21,236,255.48,235.84Z"/><path class="cls-4" d="M252.44,248.27c-.73.76-.88,1.41-.53,2-.6-.35-1.15-.17-1.8.88.42-1,.25-1.58-.62-1.58,1.19-.64,1.19-.64,1.5-1.76C251.56,248.6,251.56,248.6,252.44,248.27Z"/><path class="cls-4" d="M236.5,205.16c.94-.14,1.33-.76,1.54-1.67.09.92.57,1.06,1.6.41-.65.85-1.43,1.54-.63,2.2-.71-.26-1.32-.41-1.95.78C237.4,205.9,237.34,205.3,236.5,205.16Z"/><path class="cls-4" d="M271.37,216.56c-.73.73-.84,1.31-.54,1.93-.57-.32-1.08-.15-1.61.75.25-.84.32-1.49-.5-1.52A1.66,1.66,0,0,0,270,216.1C270.24,216.7,270.45,217.31,271.37,216.56Z"/><path class="cls-4" d="M233.36,246.73c.39-.89.42-1.52-.57-1.47a2.13,2.13,0,0,0,1.57-2c.41,1,.41,1,1.48.61-.13.44-.67.68-.72,1a4,4,0,0,0,.23,1.21c-.66-.71-1.33.06-2,.55Z"/><path class="cls-4" d="M217.9,237.45c-.43-.15-.86-.32-1.5.75.18-.78.3-1.3-.34-1.33a1.74,1.74,0,0,0,1.13-1.6c.14.77.4,1,1.13.67-.93.68-.45,1.07-.46,1.54Z"/><path class="cls-4" d="M174.24,243.87a1.93,1.93,0,0,0,1.39-1.64c.16.71.49.94,1.28.59-.63.58-.8,1.06-.39,1.64a1.32,1.32,0,0,0-1.76.73C174.83,244.48,175.23,243.73,174.24,243.87Z"/><path class="cls-4" d="M220,266.41c-.78.83-.24-.51-.67-.28.23-.28.45-.7.68-.81s.42.13.63.21C220.21,265.67,220.78,266.44,220,266.41Z"/><path class="cls-4" d="M217.86,237.48v-.06a.05.05,0,0,1,0,0Z"/><path class="cls-4" d="M251.82,238.12l0-.06,0,0h.05Z"/><path class="cls-4" d="M233.36,246.69l0,0h0Z"/><path class="cls-4" d="M158.94,263.25l0-.08,0,0H159Z"/><path class="cls-4" d="M237.26,250.21v.06l0,0Z"/><path class="cls-4" d="M252.33,244.17l0,0,0,0Z"/><path class="cls-4" d="M245.28,243.15l0-.06,0,0Z"/><path class="cls-4" d="M238.1,188.32a2.49,2.49,0,0,0,2.35-2.53c.3,1.17.78,1.93,2.35.93-1.24,1.08-1.78,2.06-.85,3.1-1-.58-1.95-.69-2.94,1.06C239.55,189.41,239.7,188.34,238.1,188.32Z"/><path class="cls-5" d="M194.58,199.71a28.08,28.08,0,0,0-.52,3.46c-.07.32,0,.66-.58.78s-.62-.06-.57-.51c.21-1.79.39-3.57.59-5.36,0-.3.08-.68.51-.69s1.23-.65,1.36.18a17.14,17.14,0,0,0,.88,3.32c.47-1.19,1-2.38,1.37-3.56.29-.89.78-1,1.47-1.14s.49.49.46.87c-.15,1.59-.34,3.2-.52,4.8-.05.41-.08.77-.7.92s-.5-.23-.47-.59c.1-1,.21-2,.34-3.24a29.93,29.93,0,0,0-1.5,3.52c-.15.37-.2.74-.74.88s-.66-.12-.73-.51C195,201.87,194.83,200.91,194.58,199.71Z"/><path class="cls-5" d="M184.21,203.32c0-.88.06-1.78.06-2.65,0-.51.23-.76.78-.91,1.52-.4,3-.83,4.53-1.26.45-.13.8-.23.77.37s-.33.71-.81.84c-1.08.29-2.17.63-3.26.94-.47.13-.81.24-.85.84s.23.66.79.49c.84-.27,1.69-.48,2.53-.73.38-.12.69-.2.64.3a.82.82,0,0,1-.71.84c-.87.21-1.76.51-2.63.71s-.78.6-.82,1.1-.06.91.7.66c1.2-.4,2.4-.72,3.59-1.08.45-.14.81-.22.77.38s-.32.71-.81.85c-1.58.45-3.16.9-4.76,1.41-.68.22-.85,0-.77-.57.1-.85.14-1.68.2-2.51Z"/><path class="cls-5" d="M255.12,198.51a4.18,4.18,0,0,0-.62,1.18c-.19.4.09.36.25.4.83.22,1.66.42,2.5.6.34.07.49.18.24.68s-.37.52-.69.43c-1.08-.28-2.18-.53-3.28-.78-.32-.07-.44-.18-.22-.64.75-1.63,1.48-3.25,2.2-4.88.17-.38.33-.49.63-.41,1.05.28,2.11.55,3.16.8.3.07.35.23.17.6s-.32.59-.67.49a18.27,18.27,0,0,0-2-.5c-.32-.07-.63-.46-1,.38s.16.69.47.78a15.31,15.31,0,0,0,1.52.37c.3.07.34.24.17.62s-.34.49-.63.41c-.57-.16-1.15-.3-1.73-.44Z"/><path class="cls-5" d="M166.43,211.45a6,6,0,0,0,0,.66c.1.41,0,.69-.61.93s-.78.17-.79-.31c0-1.84-.1-3.67-.17-5.5,0-.41.16-.67.65-.85,1.26-.44,2.51-.94,3.75-1.37a1.71,1.71,0,0,1,2.1.43,1.9,1.9,0,0,1-.25,2.32c-.31.43-.44.71-.14,1s.37.94.47,1.47c.06.33.08.64-.5.86s-.8.24-.78-.3a3.08,3.08,0,0,0-.16-.73c-.17-.76-.65-1-1.65-.51a3,3,0,0,1-.56.23C166.73,210.09,166,210.6,166.43,211.45Zm.75-2.68c.52-.19,1.23-.43,1.94-.72s1.07-.68,1-1.29-.49-.64-1.07-.43c-.75.26-1.5.57-2.26.85s-.49.77-.52,1.14S166.25,209.21,167.18,208.77Z"/><path class="cls-5" d="M232.81,193.84a2.32,2.32,0,0,1-.58,1.47,1.88,1.88,0,0,0-.72,1.81,3.17,3.17,0,0,1-.22,1.11c-.06.23-.09.53-.46.5s-.62.11-.51-.38c0,0,0-.06,0-.09.22-1.86-.12-2.18-1.89-1.82-.33.07-.42.24-.5.52s-.25.82-.37,1.23-.23.64-.69.65-.51-.17-.36-.66c.56-1.71,1.07-3.41,1.58-5.11.13-.41.27-.62.71-.6.91.05,1.85,0,2.77,0S232.76,193,232.81,193.84Zm-2.11,1.41a1.15,1.15,0,0,0,.87-.78c.15-.46,0-.79-.4-.81-.6,0-1.22,0-1.84,0s-.53.5-.64.84-.4.81.18.79S230.1,195.25,230.7,195.25Z"/><path class="cls-5" d="M174.64,206.35c0-.84.08-1.69.07-2.51a.9.9,0,0,1,.79-1c.95-.27,1.91-.67,2.85-.9,1.94-.49,2.94.33,2.93,2.29a4.53,4.53,0,0,1-3,4.27c-1,.41-2,.67-3,1-.49.18-.65.06-.62-.37.05-.94.06-1.88.08-2.82Zm1.44-.53c0,2.45,0,2.45,2.08,1.47a2.92,2.92,0,0,0,1.89-3c-.1-1.31-1-1.54-3.1-.77-1.59.6-.56,1.38-.86,2.06A.46.46,0,0,0,176.08,205.82Z"/><path class="cls-5" d="M253.13,195.66a2.57,2.57,0,0,1-1,1.91,1,1,0,0,0-.49.91,4.13,4.13,0,0,1-.34,1.44c-.11.3-.21.61-.6.53s-.45-.2-.25-.64a6.23,6.23,0,0,0,.22-.82c.19-.69,0-1.06-.59-1.06a1.81,1.81,0,0,1-.23,0c-1.09-.19-1.08-.19-1.69,1.19-.16.36-.19.9-.8.79s-.25-.56-.09-.94c.62-1.48,1.28-2.95,1.88-4.42.24-.6.48-.75.94-.64.71.18,1.45.28,2.17.43S253.15,194.93,253.13,195.66Zm-1,.23s0-.15-.08-.24a4.14,4.14,0,0,0-2.06-.54c-.43.29-.42.77-.62,1.16s0,.35.2.38a15.26,15.26,0,0,0,1.53.26A1,1,0,0,0,252.08,195.89Z"/><path class="cls-5" d="M262.15,197.16a2.44,2.44,0,0,1,2.68,1,1.41,1.41,0,0,1-.09,1.16.24.24,0,0,1-.34.12c-.28-.1-.6-.09-.6-.62,0-.76-.64-.78-1.2-.8-.23,0-.4.22-.53.45a.41.41,0,0,0,.08.58c.4.34.83.63,1.22,1a1.36,1.36,0,0,1,.32,1.91,2,2,0,0,1-2,1.19,2.53,2.53,0,0,1-1.58-.62,1.29,1.29,0,0,1-.45-.8c0-.33-.14-.84.25-1a.55.55,0,0,1,.85.47,1.1,1.1,0,0,0,1.39,1,.74.74,0,0,0,.54-.43.48.48,0,0,0-.1-.65c-.47-.42-1-.79-1.45-1.23a1.22,1.22,0,0,1-.16-1.44A2.19,2.19,0,0,1,262.15,197.16Z"/><path class="cls-5" d="M267.94,205.05a2.11,2.11,0,0,1-2.74-1.46c0-.34-.11-.86.26-1s.81-.07.8.51c0,.88.55,1,1.12,1.08a.68.68,0,0,0,.64-1.06c-.36-.37-.75-.7-1.11-1.06a1.42,1.42,0,0,1-.18-2,1.67,1.67,0,0,1,1.86-1,4.29,4.29,0,0,1,1.12.41,1.26,1.26,0,0,1,.67,1c0,.34,0,.87-.32,1s-.82.12-.73-.52a.63.63,0,0,0-.26-.66c-.36-.22-.79-.66-1.28,0s.1.87.36,1.15.73.56,1,1A1.94,1.94,0,0,1,267.94,205.05Z"/><path class="cls-5" d="M244.64,197.32l-.5-.14c-.26-.05-.2-.31-.08-.48.54-.81.93-.21,1.39-.29.26,0,.83-.21.56.48s-.56,1.46-.84,2.19c-.09.23-.19.46-.44.43s-.48.07-.35-.33c.2-.65-.2-.23-.39-.14-1.08.46-2,.29-2.45-.48a3.74,3.74,0,0,1,.58-3.68,3.36,3.36,0,0,1,2.76-1.66,1.5,1.5,0,0,1,1.42,1.21c.07.26.22.68-.05.87a.59.59,0,0,1-.92-.23c-.28-.69-.77-1-1.65-.49A3.07,3.07,0,0,0,242.3,197c0,.65.2,1.08.74,1.2S244.06,198,244.64,197.32Z"/><path class="cls-5" d="M225.34,194.09a2.91,2.91,0,0,1-2.33,2.6c-.62.08-1.25.12-1.86.14a.73.73,0,0,0-.79.71c-.06.38-.19.77-.27,1.15s-.26.62-.72.62-.54,0-.39-.55c.5-1.73,1-3.47,1.4-5.19.13-.53.37-.69.79-.71.91-.05,1.83-.14,2.73-.15A1.27,1.27,0,0,1,225.34,194.09Zm-2.07,1.42a1.24,1.24,0,0,0,.82-.87c.08-.48-.1-.75-.53-.75-.6,0-1.23.1-1.84.11s-.55.38-.61.73-.47.94.14.94S222.6,195.56,223.27,195.51Z"/><path class="cls-5" d="M161.88,211.67a5.27,5.27,0,0,1-3.52,4.5c-2,.63-3.6-.47-3.53-2.39a5.31,5.31,0,0,1,3.53-4.42C160.35,208.7,161.93,209.75,161.88,211.67Zm-5.55,1.63a1.49,1.49,0,0,0,2,1.6,3.08,3.08,0,0,0,2.1-2.76,1.45,1.45,0,0,0-2.05-1.51A3,3,0,0,0,156.33,213.3Z"/><path class="cls-5" d="M272.79,207.19c-1.21.49-2.1-.16-2.09-1.55a4.56,4.56,0,0,1,2.6-3.92c1.14-.41,2,.26,2,1.56A4.45,4.45,0,0,1,272.79,207.19Zm0-1a3,3,0,0,0,1.59-2.53c0-.76-.5-1.11-1.17-.85a3,3,0,0,0-1.65,2.52C271.62,206.1,272.12,206.46,272.84,206.16Z"/><path class="cls-5" d="M234.38,196.78a4.54,4.54,0,0,1,2.87-4c1.36-.44,2.38.37,2.37,1.88a4.76,4.76,0,0,1-2.82,4.08C235.4,199.2,234.35,198.37,234.38,196.78Zm1.06-.31c0,.93.58,1.4,1.39,1.12a3,3,0,0,0,1.74-2.57c0-.94-.6-1.44-1.43-1.14A3,3,0,0,0,235.44,196.47Z"/><path class="cls-5" d="M208.15,199.19c-.13.48.07.53.42.47.86-.16,1.71-.28,2.57-.42.35-.06.6,0,.48.44a.74.74,0,0,1-.68.67c-1.2.19-2.41.39-3.63.61-.47.09-.55-.14-.47-.57.3-1.54.59-3.08.86-4.61a.77.77,0,0,1,.74-.74c1.14-.17,2.28-.33,3.41-.51.42-.07.58.05.51.52s-.38.54-.7.59c-.79.14-1.58.27-2.37.38-.37,0-.61.15-.67.62s.16.48.54.4c.6-.12,1.2-.19,1.8-.28.36-.06.58,0,.45.44s-.21.6-.64.65a15.83,15.83,0,0,1-1.61.26C208.28,198.1,208.16,198.61,208.15,199.19Z"/><path class="cls-4" d="M167.18,208.77c-.93.44-.9-.05-.88-.45s-.35-.81.52-1.14,1.51-.59,2.26-.85c.58-.21,1-.14,1.07.43s-.39,1-1,1.29S167.7,208.58,167.18,208.77Z"/><path class="cls-4" d="M230.7,195.25c-.6,0-1.21,0-1.83,0s-.28-.46-.18-.79.08-.83.64-.84,1.24,0,1.84,0c.41,0,.55.35.4.81A1.15,1.15,0,0,1,230.7,195.25Z"/><path class="cls-4" d="M176.08,205.82a.46.46,0,0,1,0-.2c.3-.68-.73-1.46.86-2.06,2.07-.77,3-.54,3.1.77a2.92,2.92,0,0,1-1.89,3C176.06,208.27,176.06,208.27,176.08,205.82Z"/><path class="cls-4" d="M252.08,195.89a1,1,0,0,1-1,1,15.26,15.26,0,0,1-1.53-.26c-.19,0-.35-.08-.2-.38s.19-.87.62-1.16a4.14,4.14,0,0,1,2.06.54C252,195.74,252.06,195.84,252.08,195.89Z"/><path class="cls-4" d="M223.27,195.51c-.67.05-1.36.16-2,.16s-.21-.58-.14-.94.07-.72.61-.73,1.24-.1,1.84-.11c.43,0,.61.27.53.75A1.24,1.24,0,0,1,223.27,195.51Z"/><path class="cls-4" d="M156.33,213.3a3,3,0,0,1,2.06-2.67,1.45,1.45,0,0,1,2.05,1.51,3.08,3.08,0,0,1-2.1,2.76A1.49,1.49,0,0,1,156.33,213.3Z"/><path class="cls-4" d="M272.84,206.16c-.72.3-1.22-.06-1.23-.86a3,3,0,0,1,1.65-2.52c.67-.26,1.15.09,1.17.85A3,3,0,0,1,272.84,206.16Z"/><path class="cls-4" d="M235.44,196.47a3,3,0,0,1,1.7-2.59c.83-.3,1.45.2,1.43,1.14a3,3,0,0,1-1.74,2.57C236,197.87,235.44,197.4,235.44,196.47Z"/><polygon class="cls-6" points="215.07 447.22 396.2 384.15 405.83 359.07 215.07 425.49 215.07 447.22"/><polygon class="cls-7" points="215.07 468.94 386.58 409.23 396.2 384.15 215.07 447.22 215.07 468.94"/><polygon class="cls-6" points="215.07 490.67 376.95 434.3 386.58 409.23 215.07 468.94 215.07 490.67"/><polygon class="cls-6" points="215.07 403.77 415.46 334 424.47 310.51 215.07 383.42 215.07 403.77"/><polygon class="cls-6" points="424.47 310.51 424.94 309.29 215.07 383.13 215.07 383.42 424.47 310.51"/><polygon class="cls-6" points="215.07 383.13 135.87 410.99 215.07 383.42 215.07 383.13"/><polygon class="cls-7" points="215.07 512.39 367.33 459.38 376.95 434.3 215.07 490.67 215.07 512.39"/><polygon class="cls-7" points="215.07 425.49 405.83 359.07 415.46 334 215.07 403.77 215.07 425.49"/><polygon class="cls-6" points="376.03 499.8 1.84 630.08 1.84 651.81 385.86 518.1 376.03 499.8"/><polygon class="cls-7" points="405.54 554.7 1.84 695.26 1.84 716.99 415.37 573 405.54 554.7"/><polygon class="cls-8" points="135.87 410.99 1.84 458.15 1.84 478.01 1.84 499.73 1.84 521.46 1.84 543.18 1.84 564.91 1.84 586.63 1.84 608.36 215.07 534.12 215.07 512.39 215.07 490.67 215.07 468.94 215.07 447.22 215.07 425.49 215.07 403.77 215.07 383.42 135.87 410.99"/><polygon class="cls-6" points="215.07 534.12 366.19 481.5 361.9 473.52 367.33 459.38 215.07 512.39 215.07 534.12"/><polygon class="cls-6" points="415.37 573 1.84 716.99 1.84 739.49 130.87 694.56 142.2 690.54 425.05 591.02 415.37 573"/><polygon class="cls-6" points="395.7 536.4 1.84 673.53 1.84 695.26 405.54 554.7 395.7 536.4"/><polygon class="cls-7" points="215.07 534.12 1.84 608.36 215.07 534.23 215.07 534.12"/><polygon class="cls-7" points="366.19 481.5 215.07 534.12 215.07 534.23 1.84 608.36 1.84 630.08 376.03 499.8 366.19 481.5"/><polygon class="cls-7" points="385.86 518.1 1.84 651.81 1.84 673.53 395.7 536.4 385.86 518.1"/><polygon class="cls-6" points="1.84 739.93 2.41 740.14 130.87 694.56 1.84 739.49 1.84 739.93"/><polygon class="cls-7" points="24.96 592.9 20.25 591.28 16.06 595.47 17.14 589.92 12.74 588.43 18.63 586.2 20.2 579.75 22.46 584.25 27.65 582.89 23.29 588 24.96 592.9"/><polygon class="cls-7" points="60.95 580.24 56.23 578.63 52.05 582.82 53.13 577.26 48.73 575.77 54.62 573.54 56.18 567.09 58.44 571.59 63.64 570.23 59.27 575.34 60.95 580.24"/><polygon class="cls-7" points="43.08 571.18 38.36 569.57 34.18 573.76 35.26 568.2 30.86 566.72 36.75 564.48 38.31 558.03 40.57 562.53 45.77 561.17 41.4 566.28 43.08 571.18"/><polygon class="cls-7" points="78.82 558.52 74.1 556.91 69.91 561.1 71 555.55 66.59 554.06 72.49 551.83 74.05 545.37 76.31 549.88 81.51 548.51 77.14 553.62 78.82 558.52"/><polygon class="cls-7" points="114.55 545.87 109.84 544.25 105.65 548.44 106.74 542.89 102.33 541.4 108.23 539.17 109.79 532.72 112.05 537.22 117.24 535.86 112.88 540.97 114.55 545.87"/><polygon class="cls-7" points="150.29 533.21 145.58 531.6 141.39 535.79 142.47 530.23 138.07 528.74 143.96 526.51 145.53 520.06 147.79 524.56 152.98 523.2 148.62 528.31 150.29 533.21"/><polygon class="cls-7" points="186.03 520.55 181.31 518.94 177.13 523.13 178.21 517.58 173.81 516.09 179.7 513.85 181.26 507.4 183.52 511.9 188.72 510.54 184.35 515.65 186.03 520.55"/><polygon class="cls-7" points="96.24 567.58 91.53 565.97 87.34 570.16 88.43 564.61 84.02 563.12 89.92 560.88 91.48 554.43 93.74 558.93 98.93 557.57 94.57 562.68 96.24 567.58"/><polygon class="cls-7" points="132.23 554.93 127.52 553.31 123.33 557.5 124.41 551.95 120.01 550.46 125.9 548.23 127.46 541.77 129.72 546.28 134.92 544.92 130.56 550.02 132.23 554.93"/><polygon class="cls-7" points="168.22 542.96 163.5 541.35 159.31 545.53 160.4 539.98 155.99 538.49 161.89 536.26 163.45 529.81 165.71 534.31 170.91 532.95 166.54 538.06 168.22 542.96"/><polygon class="cls-7" points="204.2 530.3 199.49 528.69 195.3 532.88 196.38 527.32 191.98 525.84 197.87 523.6 199.44 517.15 201.7 521.65 206.89 520.29 202.53 525.4 204.2 530.3"/><polygon class="cls-7" points="24.93 562.21 20.22 560.6 16.03 564.78 17.12 559.23 12.71 557.74 18.61 555.51 20.17 549.05 22.43 553.56 27.62 552.2 23.26 557.31 24.93 562.21"/><polygon class="cls-7" points="60.92 549.55 56.2 547.94 52.02 552.13 53.1 546.57 48.7 545.08 54.59 542.85 56.15 536.4 58.41 540.9 63.61 539.54 59.24 544.65 60.92 549.55"/><polygon class="cls-7" points="43.05 540.49 38.34 538.88 34.15 543.07 35.23 537.51 30.83 536.03 36.72 533.79 38.28 527.34 40.55 531.84 45.74 530.48 41.38 535.59 43.05 540.49"/><polygon class="cls-7" points="78.79 527.84 74.07 526.22 69.89 530.41 70.97 524.86 66.57 523.37 72.46 521.13 74.02 514.68 76.28 519.19 81.48 517.82 77.11 522.93 78.79 527.84"/><polygon class="cls-7" points="114.53 515.18 109.81 513.57 105.62 517.75 106.71 512.2 102.3 510.71 108.2 508.48 109.76 502.02 112.02 506.53 117.22 505.17 112.85 510.28 114.53 515.18"/><polygon class="cls-7" points="150.26 502.52 145.55 500.91 141.36 505.1 142.45 499.54 138.04 498.05 143.94 495.82 145.5 489.37 147.76 493.87 152.96 492.51 148.59 497.62 150.26 502.52"/><polygon class="cls-7" points="186 489.86 181.29 488.25 177.1 492.44 178.19 486.89 173.78 485.4 179.67 483.16 181.24 476.71 183.5 481.22 188.69 479.85 184.33 484.96 186 489.86"/><polygon class="cls-7" points="96.22 536.89 91.5 535.28 87.31 539.47 88.4 533.92 83.99 532.43 89.89 530.19 91.45 523.74 93.71 528.25 98.91 526.88 94.54 531.99 96.22 536.89"/><polygon class="cls-7" points="132.2 524.24 127.49 522.62 123.3 526.81 124.39 521.26 119.98 519.77 125.87 517.54 127.44 511.08 129.7 515.59 134.89 514.23 130.53 519.34 132.2 524.24"/><polygon class="cls-7" points="168.19 512.27 163.47 510.66 159.28 514.84 160.37 509.29 155.97 507.8 161.86 505.57 163.42 499.12 165.68 503.62 170.88 502.26 166.51 507.37 168.19 512.27"/><polygon class="cls-7" points="204.17 499.61 199.46 498 195.27 502.19 196.36 496.63 191.95 495.14 197.85 492.91 199.41 486.46 201.67 490.96 206.86 489.6 202.5 494.71 204.17 499.61"/><polygon class="cls-7" points="24.93 532.21 20.22 530.6 16.03 534.78 17.12 529.23 12.71 527.74 18.61 525.51 20.17 519.05 22.43 523.56 27.62 522.2 23.26 527.31 24.93 532.21"/><polygon class="cls-7" points="60.92 519.55 56.2 517.94 52.02 522.13 53.1 516.57 48.7 515.08 54.59 512.85 56.15 506.4 58.41 510.9 63.61 509.54 59.24 514.65 60.92 519.55"/><polygon class="cls-7" points="43.05 510.49 38.34 508.88 34.15 513.07 35.23 507.51 30.83 506.02 36.72 503.79 38.28 497.34 40.55 501.84 45.74 500.48 41.38 505.59 43.05 510.49"/><polygon class="cls-7" points="78.79 497.83 74.07 496.22 69.89 500.41 70.97 494.86 66.57 493.37 72.46 491.13 74.02 484.68 76.28 489.19 81.48 487.82 77.11 492.93 78.79 497.83"/><polygon class="cls-7" points="114.53 485.18 109.81 483.56 105.62 487.75 106.71 482.2 102.3 480.71 108.2 478.48 109.76 472.02 112.02 476.53 117.22 475.17 112.85 480.28 114.53 485.18"/><polygon class="cls-7" points="150.26 472.52 145.55 470.91 141.36 475.1 142.45 469.54 138.04 468.05 143.94 465.82 145.5 459.37 147.76 463.87 152.96 462.51 148.59 467.62 150.26 472.52"/><polygon class="cls-7" points="186 459.86 181.29 458.25 177.1 462.44 178.19 456.89 173.78 455.4 179.67 453.16 181.24 446.71 183.5 451.21 188.69 449.85 184.33 454.96 186 459.86"/><polygon class="cls-7" points="96.22 506.89 91.5 505.28 87.31 509.47 88.4 503.92 83.99 502.43 89.89 500.19 91.45 493.74 93.71 498.25 98.91 496.88 94.54 501.99 96.22 506.89"/><polygon class="cls-7" points="132.2 494.24 127.49 492.62 123.3 496.81 124.39 491.26 119.98 489.77 125.87 487.54 127.44 481.08 129.7 485.59 134.89 484.23 130.53 489.33 132.2 494.24"/><polygon class="cls-7" points="168.19 482.27 163.47 480.66 159.28 484.84 160.37 479.29 155.97 477.8 161.86 475.57 163.42 469.12 165.68 473.62 170.88 472.26 166.51 477.37 168.19 482.27"/><polygon class="cls-7" points="204.17 469.61 199.46 468 195.27 472.19 196.36 466.63 191.95 465.14 197.85 462.91 199.41 456.46 201.67 460.96 206.86 459.6 202.5 464.71 204.17 469.61"/><polygon class="cls-7" points="24.93 502.21 20.22 500.6 16.03 504.78 17.12 499.23 12.71 497.74 18.61 495.51 20.17 489.05 22.43 493.56 27.62 492.2 23.26 497.31 24.93 502.21"/><polygon class="cls-7" points="60.92 489.55 56.2 487.94 52.02 492.13 53.1 486.57 48.7 485.08 54.59 482.85 56.15 476.4 58.41 480.9 63.61 479.54 59.24 484.65 60.92 489.55"/><polygon class="cls-7" points="43.05 480.49 38.34 478.88 34.15 483.07 35.23 477.51 30.83 476.02 36.72 473.79 38.28 467.34 40.55 471.84 45.74 470.48 41.38 475.59 43.05 480.49"/><polygon class="cls-7" points="78.79 467.83 74.07 466.22 69.89 470.41 70.97 464.86 66.57 463.37 72.46 461.13 74.02 454.68 76.28 459.19 81.48 457.82 77.11 462.93 78.79 467.83"/><polygon class="cls-7" points="114.53 455.18 109.81 453.56 105.62 457.75 106.71 452.2 102.3 450.71 108.2 448.48 109.76 442.02 112.02 446.53 117.22 445.17 112.85 450.28 114.53 455.18"/><polygon class="cls-7" points="150.26 442.52 145.55 440.91 141.36 445.1 142.45 439.54 138.04 438.05 143.94 435.82 145.5 429.37 147.76 433.87 152.96 432.51 148.59 437.62 150.26 442.52"/><polygon class="cls-7" points="186 429.86 181.29 428.25 177.1 432.44 178.19 426.89 173.78 425.4 179.67 423.16 181.24 416.71 183.5 421.21 188.69 419.85 184.33 424.96 186 429.86"/><polygon class="cls-7" points="24.77 471.11 20.05 469.49 15.87 473.68 16.95 468.13 12.55 466.64 18.44 464.4 20 457.95 22.26 462.46 27.46 461.09 23.09 466.2 24.77 471.11"/><polygon class="cls-7" points="60.51 458.45 55.79 456.83 51.6 461.02 52.69 455.47 48.28 453.98 54.18 451.75 55.74 445.29 58 449.8 63.2 448.44 58.83 453.55 60.51 458.45"/><polygon class="cls-7" points="96.24 445.79 91.53 444.18 87.34 448.37 88.43 442.81 84.02 441.32 89.92 439.09 91.48 432.64 93.74 437.14 98.93 435.78 94.57 440.89 96.24 445.79"/><polygon class="cls-7" points="131.98 433.13 127.27 431.52 123.08 435.71 124.16 430.15 119.76 428.67 125.65 426.43 127.22 419.98 129.48 424.49 134.67 423.12 130.31 428.23 131.98 433.13"/><polygon class="cls-7" points="167.72 422 163 420.39 158.82 424.57 159.9 419.02 155.5 417.53 161.39 415.3 162.95 408.85 165.21 413.35 170.41 411.99 166.04 417.1 167.72 422"/><polygon class="cls-7" points="204.2 408.46 199.49 406.85 195.3 411.04 196.38 405.48 191.98 403.99 197.87 401.76 199.44 395.31 201.7 399.81 206.89 398.45 202.53 403.56 204.2 408.46"/><polygon class="cls-7" points="96.22 476.89 91.5 475.28 87.31 479.47 88.4 473.92 83.99 472.43 89.89 470.19 91.45 463.74 93.71 468.25 98.91 466.88 94.54 471.99 96.22 476.89"/><polygon class="cls-7" points="132.2 464.24 127.49 462.62 123.3 466.81 124.39 461.26 119.98 459.77 125.87 457.54 127.44 451.08 129.7 455.59 134.89 454.23 130.53 459.33 132.2 464.24"/><polygon class="cls-7" points="168.19 452.27 163.47 450.66 159.28 454.84 160.37 449.29 155.97 447.8 161.86 445.57 163.42 439.12 165.68 443.62 170.88 442.26 166.51 447.37 168.19 452.27"/><polygon class="cls-7" points="204.17 439.61 199.46 438 195.27 442.19 196.36 436.63 191.95 435.14 197.85 432.91 199.41 426.46 201.67 430.96 206.86 429.6 202.5 434.71 204.17 439.61"/></g></g></svg>